REM DIRINDEX 1\2,1\3,1\4,1\5,1\6
REM DIRNAME cjc129,folder01,folder02,folder03,folder04,folder05
TITLE ""
FILE "DISC1Track08.mp3" MP3
  TRACK 01 AUDIO
    TITLE "0:"
    INDEX 01 00:00:00
  TRACK 02 AUDIO
    TITLE "3:cjc129_0180"
    INDEX 01 00:00:05
  TRACK 03 AUDIO
    TITLE "0:"
    INDEX 01 00:01:19
  TRACK 04 AUDIO
    TITLE "5:cjc129_0181"
    INDEX 01 00:02:67
  TRACK 05 AUDIO
    TITLE "0:"
    INDEX 01 00:09:18
  TRACK 06 AUDIO
    TITLE "4:cjc129_0182"
    INDEX 01 00:10:06
  TRACK 07 AUDIO
    TITLE "0:"
    INDEX 01 00:11:19
  TRACK 08 AUDIO
    TITLE "6:cjc129_0183"
    INDEX 01 00:11:48
  TRACK 09 AUDIO
    TITLE "0:"
    INDEX 01 00:15:36
  TRACK 10 AUDIO
    TITLE "3:cjc129_0184"
    INDEX 01 00:17:14
  TRACK 11 AUDIO
    TITLE "0:"
    INDEX 01 00:18:27
  TRACK 12 AUDIO
    TITLE "5:cjc129_0185"
    INDEX 01 00:19:63
  TRACK 13 AUDIO
    TITLE "0:"
    INDEX 01 00:25:48
  TRACK 14 AUDIO
    TITLE "4:cjc129_0186"
    INDEX 01 00:26:36
  TRACK 15 AUDIO
    TITLE "0:"
    INDEX 01 00:27:49
  TRACK 16 AUDIO
    TITLE "6:cjc129_0187"
    INDEX 01 00:28:06
  TRACK 17 AUDIO
    TITLE "0:"
    INDEX 01 00:34:69
  TRACK 18 AUDIO
    TITLE "3:cjc129_0188"
    INDEX 01 00:36:40
  TRACK 19 AUDIO
    TITLE "0:"
    INDEX 01 00:37:67
  TRACK 20 AUDIO
    TITLE "5:cjc129_0189"
    INDEX 01 00:38:24
  TRACK 21 AUDIO
    TITLE "0:"
    INDEX 01 00:42:04
  TRACK 22 AUDIO
    TITLE "4:cjc129_0190"
    INDEX 01 00:42:68
  TRACK 23 AUDIO
    TITLE "0:"
    INDEX 01 00:44:18
  TRACK 24 AUDIO
    TITLE "6:cjc129_0191"
    INDEX 01 00:44:52
  TRACK 25 AUDIO
    TITLE "0:"
    INDEX 01 00:48:51
  TRACK 26 AUDIO
    TITLE "3:cjc129_0192"
    INDEX 01 00:50:25
  TRACK 27 AUDIO
    TITLE "0:"
    INDEX 01 00:51:48
  TRACK 28 AUDIO
    TITLE "5:cjc129_0193"
    INDEX 01 00:53:17
  TRACK 29 AUDIO
    TITLE "0:"
    INDEX 01 00:54:66
  TRACK 30 AUDIO
    TITLE "4:cjc129_0194"
    INDEX 01 00:55:53
  TRACK 31 AUDIO
    TITLE "0:"
    INDEX 01 00:57:03
  TRACK 32 AUDIO
    TITLE "6:cjc129_0195"
    INDEX 01 00:57:33
  TRACK 33 AUDIO
    TITLE "0:"
    INDEX 01 01:01:31
  TRACK 34 AUDIO
    TITLE "3:cjc129_0196"
    INDEX 01 01:03:04
  TRACK 35 AUDIO
    TITLE "0:"
    INDEX 01 01:04:15
  TRACK 36 AUDIO
    TITLE "5:cjc129_0197"
    INDEX 01 01:05:46
  TRACK 37 AUDIO
    TITLE "0:"
    INDEX 01 01:12:23
  TRACK 38 AUDIO
    TITLE "4:cjc129_0198"
    INDEX 01 01:13:12
  TRACK 39 AUDIO
    TITLE "0:"
    INDEX 01 01:14:25
  TRACK 40 AUDIO
    TITLE "6:cjc129_0199"
    INDEX 01 01:14:53
  TRACK 41 AUDIO
    TITLE "0:"
    INDEX 01 01:18:19
  TRACK 42 AUDIO
    TITLE "3:cjc129_0200"
    INDEX 01 01:19:64
  TRACK 43 AUDIO
    TITLE "0:"
    INDEX 01 01:21:06
  TRACK 44 AUDIO
    TITLE "5:cjc129_0201"
    INDEX 01 01:22:50
  TRACK 45 AUDIO
    TITLE "0:"
    INDEX 01 01:24:45
  TRACK 46 AUDIO
    TITLE "4:cjc129_0202"
    INDEX 01 01:25:37
  TRACK 47 AUDIO
    TITLE "0:"
    INDEX 01 01:26:54
  TRACK 48 AUDIO
    TITLE "6:cjc129_0203"
    INDEX 01 01:27:10
  TRACK 49 AUDIO
    TITLE "0:"
    INDEX 01 01:33:03
  TRACK 50 AUDIO
    TITLE "3:cjc129_0204"
    INDEX 01 01:34:52
  TRACK 51 AUDIO
    TITLE "0:"
    INDEX 01 01:35:69
  TRACK 52 AUDIO
    TITLE "5:cjc129_0205"
    INDEX 01 01:37:28
  TRACK 53 AUDIO
    TITLE "0:"
    INDEX 01 01:40:66
  TRACK 54 AUDIO
    TITLE "4:cjc129_0206"
    INDEX 01 01:41:54
  TRACK 55 AUDIO
    TITLE "0:"
    INDEX 01 01:42:69
  TRACK 56 AUDIO
    TITLE "6:cjc129_0207"
    INDEX 01 01:43:29
  TRACK 57 AUDIO
    TITLE "0:"
    INDEX 01 01:47:60
  TRACK 58 AUDIO
    TITLE "3:cjc129_0208"
    INDEX 01 01:49:37
  TRACK 59 AUDIO
    TITLE "0:"
    INDEX 01 01:50:60
  TRACK 60 AUDIO
    TITLE "5:cjc129_0209"
    INDEX 01 01:51:15
  TRACK 61 AUDIO
    TITLE "0:"
    INDEX 01 01:53:39
  TRACK 62 AUDIO
    TITLE "4:cjc129_0210"
    INDEX 01 01:54:29
  TRACK 63 AUDIO
    TITLE "0:"
    INDEX 01 01:55:52
  TRACK 64 AUDIO
    TITLE "6:cjc129_0211"
    INDEX 01 01:56:08
  TRACK 65 AUDIO
    TITLE "0:"
    INDEX 01 02:00:67
  TRACK 66 AUDIO
    TITLE "3:cjc129_0212"
    INDEX 01 02:02:42
  TRACK 67 AUDIO
    TITLE "0:"
    INDEX 01 02:03:57
  TRACK 68 AUDIO
    TITLE "5:cjc129_0213"
    INDEX 01 02:04:13
  TRACK 69 AUDIO
    TITLE "0:"
    INDEX 01 02:05:72
  TRACK 70 AUDIO
    TITLE "4:cjc129_0214"
    INDEX 01 02:06:63
  TRACK 71 AUDIO
    TITLE "0:"
    INDEX 01 02:08:03
  TRACK 72 AUDIO
    TITLE "6:cjc129_0215"
    INDEX 01 02:08:35
  TRACK 73 AUDIO
    TITLE "0:"
    INDEX 01 02:13:28
